<svg width="276" height="47" viewBox="0 0 276 47" fill="none" xmlns="http://www.w3.org/2000/svg">
<g clip-path="url(#clip0_88_6988)">
<path d="M101.314 2.7961L88.9482 15.0742L92.2007 18.297L104.566 6.01884L101.314 2.7961Z" fill="#DA291C"/>
<path d="M83.5326 0.244751H78.9512V13.4156H83.5326V0.244751Z" fill="#DA291C"/>
<path d="M108.012 23.3976H94.4648V27.942H108.012V23.3976Z" fill="#DA291C"/>
<path d="M84.6144 32.2043C83.5322 33.3325 82.2052 33.8653 80.6253 33.8653C79.0455 33.8653 77.7659 33.3325 76.6837 32.2043C75.6016 31.076 75.0091 29.7597 75.0091 28.2475C75.0091 26.6335 75.6016 25.3094 76.6837 24.2359C77.7659 23.1155 79.0929 22.5671 80.6253 22.6297C82.2052 22.5749 83.5322 23.1155 84.6618 24.2359C85.6965 25.3094 86.2416 26.6335 86.2968 28.2475C86.2416 29.7597 85.6965 31.0838 84.6223 32.2043M88.2084 20.6553C86.0915 18.5555 83.5322 17.5212 80.6253 17.5212C77.7185 17.5212 75.2066 18.5555 73.1371 20.6553C71.0201 22.7629 69.9854 25.3015 69.9854 28.2397C69.9854 31.1779 71.0201 33.7164 73.1371 35.7692C75.2066 37.8769 77.7185 38.9425 80.6253 38.9425C83.5322 38.9425 86.0915 37.8691 88.2084 35.7692C90.278 33.7086 91.3127 31.17 91.3127 28.2397C91.3127 25.3094 90.2701 22.7551 88.2084 20.6553Z" fill="#DA291C"/>
<path d="M13.1914 12.2951C9.50253 12.2403 6.44561 13.5174 3.88632 16.15C1.27174 18.7434 0 21.8305 0 25.4973C0 29.1641 1.27174 32.306 3.88632 34.8995C6.44561 37.438 9.50253 38.7152 13.1914 38.7152C16.1535 38.7152 18.8629 37.8298 21.2247 36.0199C23.5391 34.163 25.0636 31.8594 25.8535 29.0231H20.4822C19.795 30.3943 18.8076 31.5147 17.5753 32.4001C16.2009 33.2306 14.7712 33.6772 13.1914 33.6772C10.9323 33.6772 9.00489 32.8467 7.43299 31.2796C5.81369 29.6656 5.02378 27.7617 5.07118 25.5051C5.02378 23.2643 5.81369 21.3525 7.43299 19.7385C9.01279 18.1715 10.9323 17.341 13.1914 17.341C14.7712 17.341 16.2009 17.7719 17.5753 18.6573C18.8155 19.4878 19.795 20.663 20.4822 22.0264H25.8535C25.0636 19.19 23.5391 16.8473 21.2247 15.0374C18.8629 13.1727 16.1535 12.2403 13.1914 12.2951Z" fill="#DA291C"/>
<path d="M47.8765 28.9683L48.856 28.4433V30.4961C48.856 32.2512 48.3662 33.4813 47.4263 34.1629C46.4389 34.8446 45.4041 35.1893 44.2272 35.1893C43.4846 35.1893 42.9001 34.9935 42.4025 34.6017C41.9127 34.1629 41.6679 33.5283 41.6679 32.5959C41.6679 31.5695 42.0628 30.833 42.9001 30.3002C43.3899 30.0025 44.2272 29.7596 45.3093 29.6107L47.8765 28.9761V28.9683ZM45.7043 17.4741C42.2524 17.4193 39.8432 18.3517 38.4609 20.1616C37.5762 21.282 37.1338 22.755 36.9837 24.6119H42.1023C42.1971 23.7344 42.4973 23.1468 42.8369 22.755C43.382 22.0655 44.2666 21.7208 45.5542 21.7756C46.6364 21.7208 47.4737 21.9245 48.0582 22.2692C48.6506 22.5591 48.8955 23.1468 48.9429 23.9851C48.9429 24.6746 48.5479 25.2074 47.7659 25.5521L43.8243 26.1868C41.9996 26.4297 40.5304 26.8684 39.3929 27.5031C37.4735 28.6314 36.5414 30.4413 36.5888 33.0347C36.5493 34.8289 37.1338 36.3098 38.3108 37.3832C39.3456 38.2686 40.7674 38.7465 42.4973 38.8013C45.3014 38.7465 47.521 38.0648 49.093 36.6937V38.8013H54.2194V23.8284C54.2194 21.3839 53.3268 19.6758 51.6522 18.7904C49.875 17.8581 47.9081 17.4193 45.6964 17.4663" fill="#DA291C"/>
<path d="M33.5785 12.2952H28.46V38.8092H33.5785V12.2952Z" fill="#DA291C"/>
<path d="M66.194 18.2107C64.8195 18.7514 63.5873 19.6837 62.5446 21.0941V18.5006L57.6709 18.4536V38.8014H62.7421V29.0702C62.7421 27.4013 62.9395 26.2339 63.3819 25.4896C63.7216 24.7139 64.3614 24.0792 65.1592 23.5386C66.0439 22.951 66.976 22.6533 67.9633 22.6533L69.5352 22.7551L69.4878 17.5604L68.1608 17.6623L66.1861 18.2029L66.194 18.2107Z" fill="#DA291C"/>
<path d="M118.588 30.2375C118.588 32.8466 120.2 34.7584 123.067 34.7584C125.302 34.7584 126.408 34.1316 127.704 32.8466L130.808 35.8475C128.731 37.9081 126.724 39.0442 123.035 39.0442C118.201 39.0442 113.572 36.8582 113.572 28.6392C113.572 22.0185 117.182 18.2733 122.49 18.2733C128.185 18.2733 131.408 22.4024 131.408 27.9732V30.2375H118.604H118.588ZM125.895 24.5884C125.342 23.3818 124.204 22.4808 122.474 22.4808C120.745 22.4808 119.607 23.374 119.054 24.5884C118.738 25.3328 118.628 25.8734 118.58 26.7666H126.361C126.321 25.8734 126.203 25.3328 125.887 24.5884" fill="black"/>
<path d="M158.376 38.8092V26.5315C158.376 23.7657 156.607 22.8334 154.995 22.8334C153.384 22.8334 151.583 23.7657 151.583 26.4218V38.8092H146.472V26.5315C146.472 23.7657 144.703 22.8334 143.099 22.8334C141.496 22.8334 139.679 23.7657 139.679 26.5315V38.8092H134.576V18.5084H139.56V20.381C140.895 19.0177 142.783 18.2733 144.663 18.2733C146.946 18.2733 148.787 19.096 150.09 20.8432C151.82 19.049 153.668 18.2733 156.212 18.2733C158.257 18.2733 160.106 18.9315 161.243 20.0676C162.894 21.6973 163.479 23.609 163.479 25.8342V38.8092H158.368H158.376Z" fill="black"/>
<path d="M182.499 37.2109C181.361 38.3392 179.513 39.0443 177.514 39.0443C175.516 39.0443 173.905 38.4959 172.562 37.0229V46.2526H167.459V18.5085H172.412V20.4202C173.826 18.861 175.358 18.2812 177.514 18.2812C179.513 18.2812 181.361 18.9786 182.499 20.1068C184.545 22.1283 184.584 25.5993 184.584 28.6393C184.584 31.6793 184.545 35.1894 182.499 37.2109ZM176.022 22.8335C172.957 22.8335 172.562 25.325 172.562 28.6393C172.562 31.9535 172.957 34.4843 176.022 34.4843C179.086 34.4843 179.481 31.9457 179.481 28.6393C179.481 25.3329 179.086 22.8335 176.022 22.8335Z" fill="black"/>
<path d="M199.008 24.04C198.219 23.2643 197.555 22.8334 196.299 22.8334C194.727 22.8334 192.997 24.0008 192.997 26.5707V38.8014H187.895V18.5006H192.887V20.4437C193.874 19.2762 195.833 18.2655 198.037 18.2655C200.035 18.2655 201.449 18.7748 202.863 20.1773L199.016 24.0322L199.008 24.04Z" fill="black"/>
<path d="M207.018 30.2375C207.018 32.8466 208.629 34.7584 211.497 34.7584C213.74 34.7584 214.838 34.1316 216.133 32.8466L219.238 35.8475C217.152 37.9081 215.154 39.0442 211.457 39.0442C206.623 39.0442 201.994 36.8582 201.994 28.6392C201.994 22.0185 205.604 18.2733 210.912 18.2733C216.607 18.2733 219.83 22.4024 219.83 27.9732V30.2375H207.026H207.018ZM214.325 24.5884C213.772 23.3818 212.634 22.4808 210.912 22.4808C209.19 22.4808 208.045 23.374 207.492 24.5884C207.184 25.3328 207.057 25.8734 207.026 26.7666H214.798C214.759 25.8734 214.64 25.3328 214.332 24.5884" fill="black"/>
<path d="M229.727 39.0364C226.505 39.0364 223.598 38.6838 221.007 36.1139L224.34 32.7996C226.031 34.4763 228.227 34.7114 229.798 34.7114C231.568 34.7114 233.408 34.1316 233.408 32.6116C233.408 31.6009 232.863 30.8957 231.252 30.739L228.029 30.4256C224.34 30.073 222.057 28.4825 222.057 24.7373C222.057 20.5298 225.786 18.2733 229.956 18.2733C233.14 18.2733 235.81 18.8139 237.776 20.6474L234.633 23.7971C233.456 22.7472 231.647 22.4338 229.877 22.4338C227.832 22.4338 226.971 23.3661 226.971 24.3847C226.971 25.1212 227.287 25.9831 229.088 26.1398L232.31 26.4453C236.355 26.8371 238.393 28.9761 238.393 32.4079C238.393 36.8896 234.546 39.0286 229.712 39.0286" fill="black"/>
<path d="M251.647 38.8092V37.0541C250.273 38.4174 248.977 39.005 246.624 39.005C244.27 39.005 242.619 38.4174 241.402 37.2108C240.304 36.0825 239.712 34.445 239.712 32.6508C239.712 29.4227 241.947 26.7744 246.703 26.7744H251.537V25.7559C251.537 23.5385 250.439 22.5591 247.729 22.5591C245.763 22.5591 244.862 23.0292 243.804 24.2358L240.541 21.0783C242.548 18.9001 244.507 18.2733 247.927 18.2733C253.662 18.2733 256.647 20.6865 256.647 25.4425V38.8092H251.655H251.647ZM251.529 30.2375H247.485C245.636 30.2375 244.617 31.0916 244.617 32.5332C244.617 33.9749 245.557 34.8759 247.564 34.8759C248.977 34.8759 249.878 34.7584 250.786 33.9044C251.339 33.3951 251.537 32.5802 251.537 31.3345V30.2454L251.529 30.2375Z" fill="black"/>
<path d="M267.319 39.0364C264.096 39.0364 261.19 38.6838 258.599 36.1139L261.932 32.7996C263.622 34.4763 265.818 34.7114 267.39 34.7114C269.16 34.7114 271 34.1316 271 32.6116C271 31.6009 270.455 30.8957 268.844 30.739L265.621 30.4256C261.932 30.073 259.649 28.4825 259.649 24.7373C259.649 20.5298 263.378 18.2733 267.54 18.2733C270.724 18.2733 273.394 18.8139 275.36 20.6474L272.217 23.7971C271.04 22.7472 269.231 22.4338 267.461 22.4338C265.423 22.4338 264.555 23.3661 264.555 24.3847C264.555 25.1212 264.87 25.9831 266.679 26.1398L269.902 26.4453C273.946 26.8371 275.992 28.9761 275.992 32.4079C275.992 36.8896 272.145 39.0286 267.311 39.0286" fill="black"/>
</g>
<defs>
<clipPath id="clip0_88_6988">
<rect width="276" height="46" fill="white" transform="translate(0 0.244751)"/>
</clipPath>
</defs>
</svg>
